<svg xmlns="http://www.w3.org/2000/svg" width="1450" height="720" viewBox="0 0 1450 720">
  <rect width="1450" height="720" fill="white"/>
  <style>
    text { font-family: Inter, Arial, sans-serif; fill: #17202a; }
    .title { font-size: 24px; font-weight: 700; }
    .subtitle { font-size: 13px; fill: #64748b; }
    .axis { font-size: 11px; fill: #64748b; }
    .label { font-size: 12px; }
    .small { font-size: 10px; fill: #64748b; }
  </style>
  <text x="55" y="55" class="title" text-anchor="start" >Figure 8. Bootstrap Confidence Intervals for Fragment ADMET Medians</text>
<text x="55" y="137" class="small" text-anchor="start" >[*]c1ccc([*])cc1 | hERG</text>
<line x1="520.0" y1="131" x2="520.0" y2="131" stroke="#1f6fb2" stroke-width="3" />
<rect x="516.0" y="123" width="8" height="16" rx="2" fill="#1f6fb2" stroke="none" />
<text x="530.0" y="135" class="axis" text-anchor="start" >n=2429</text>
<text x="55" y="175" class="small" text-anchor="start" >[*]c1ccccc1 | hERG</text>
<line x1="520.0" y1="169" x2="520.0" y2="169" stroke="#1f6fb2" stroke-width="3" />
<rect x="516.0" y="161" width="8" height="16" rx="2" fill="#1f6fb2" stroke="none" />
<text x="530.0" y="173" class="axis" text-anchor="start" >n=2114</text>
<text x="55" y="213" class="small" text-anchor="start" >[*]C(F)(F)F | hERG</text>
<line x1="520.0" y1="207" x2="520.0" y2="207" stroke="#1f6fb2" stroke-width="3" />
<rect x="516.0" y="199" width="8" height="16" rx="2" fill="#1f6fb2" stroke="none" />
<text x="530.0" y="211" class="axis" text-anchor="start" >n=1656</text>
<text x="55" y="251" class="small" text-anchor="start" >[*]N1CCC([*])CC1 | hERG</text>
<line x1="520.0" y1="245" x2="520.0" y2="245" stroke="#1f6fb2" stroke-width="3" />
<rect x="516.0" y="237" width="8" height="16" rx="2" fill="#1f6fb2" stroke="none" />
<text x="530.0" y="249" class="axis" text-anchor="start" >n=1498</text>
<text x="55" y="289" class="small" text-anchor="start" >[*]N1CCN([*])CC1 | hERG</text>
<line x1="520.0" y1="283" x2="520.0" y2="283" stroke="#1f6fb2" stroke-width="3" />
<rect x="516.0" y="275" width="8" height="16" rx="2" fill="#1f6fb2" stroke="none" />
<text x="530.0" y="287" class="axis" text-anchor="start" >n=950</text>
<text x="55" y="327" class="small" text-anchor="start" >[*]CCC[*] | hERG</text>
<line x1="520.0" y1="321" x2="520.0" y2="321" stroke="#1f6fb2" stroke-width="3" />
<rect x="516.0" y="313" width="8" height="16" rx="2" fill="#1f6fb2" stroke="none" />
<text x="530.0" y="325" class="axis" text-anchor="start" >n=869</text>
<text x="55" y="365" class="small" text-anchor="start" >[*]c1ccc(F)cc1 | hERG</text>
<line x1="520.0" y1="359" x2="520.0" y2="359" stroke="#1f6fb2" stroke-width="3" />
<rect x="516.0" y="351" width="8" height="16" rx="2" fill="#1f6fb2" stroke="none" />
<text x="530.0" y="363" class="axis" text-anchor="start" >n=791</text>
<text x="55" y="403" class="small" text-anchor="start" >[*]c1ccc([*])c([*])c1 | hERG</text>
<line x1="520.0" y1="397" x2="520.0" y2="397" stroke="#1f6fb2" stroke-width="3" />
<rect x="516.0" y="389" width="8" height="16" rx="2" fill="#1f6fb2" stroke="none" />
<text x="530.0" y="401" class="axis" text-anchor="start" >n=559</text>
<text x="55" y="441" class="small" text-anchor="start" >[*]c1ccc(Cl)cc1 | hERG</text>
<line x1="520.0" y1="435" x2="520.0" y2="435" stroke="#1f6fb2" stroke-width="3" />
<rect x="516.0" y="427" width="8" height="16" rx="2" fill="#1f6fb2" stroke="none" />
<text x="530.0" y="439" class="axis" text-anchor="start" >n=558</text>
<text x="55" y="479" class="small" text-anchor="start" >[*]c1nnc([*])n1C | hERG</text>
<line x1="520.0" y1="473" x2="520.0" y2="473" stroke="#1f6fb2" stroke-width="3" />
<rect x="516.0" y="465" width="8" height="16" rx="2" fill="#1f6fb2" stroke="none" />
<text x="530.0" y="477" class="axis" text-anchor="start" >n=452</text>
<text x="55" y="517" class="small" text-anchor="start" >[*]C1CC1 | hERG</text>
<line x1="1280.0" y1="511" x2="1280.0" y2="511" stroke="#1f6fb2" stroke-width="3" />
<rect x="1276.0" y="503" width="8" height="16" rx="2" fill="#1f6fb2" stroke="none" />
<text x="1290.0" y="515" class="axis" text-anchor="start" >n=490</text>
<text x="55" y="555" class="small" text-anchor="start" >[*]C(=O)C[*] | hERG</text>
<line x1="1280.0" y1="549" x2="1280.0" y2="549" stroke="#1f6fb2" stroke-width="3" />
<rect x="1276.0" y="541" width="8" height="16" rx="2" fill="#1f6fb2" stroke="none" />
<text x="1290.0" y="553" class="axis" text-anchor="start" >n=464</text>
<text x="55" y="593" class="small" text-anchor="start" >[*]c1ccc([*])cn1 | hERG</text>
<line x1="1280.0" y1="587" x2="1280.0" y2="587" stroke="#1f6fb2" stroke-width="3" />
<rect x="1276.0" y="579" width="8" height="16" rx="2" fill="#1f6fb2" stroke="none" />
<text x="1290.0" y="591" class="axis" text-anchor="start" >n=422</text>
<text x="55" y="631" class="small" text-anchor="start" >[*]C(=O)O | hERG</text>
<line x1="1280.0" y1="625" x2="1280.0" y2="625" stroke="#1f6fb2" stroke-width="3" />
<rect x="1276.0" y="617" width="8" height="16" rx="2" fill="#1f6fb2" stroke="none" />
<text x="1290.0" y="629" class="axis" text-anchor="start" >n=360</text>
<line x1="520" y1="657" x2="1280" y2="657" stroke="#d8e0e7" stroke-width="1.5" />
<text x="520" y="681" class="axis" text-anchor="middle" >0.00</text>
<text x="1280" y="681" class="axis" text-anchor="middle" >1.00</text>
<text x="55" y="665" class="subtitle" text-anchor="start" >Intervals are percentile bootstrap 95% confidence intervals for median parent-molecule endpoint values.</text>
</svg>
